<mxfile host="Electron" agent="Mozilla/5.0 (Macintosh; Intel Mac OS X 10_15_7) AppleWebKit/537.36 (KHTML, like Gecko) draw.io/27.0.5 Chrome/134.0.6998.205 Electron/35.3.0 Safari/537.36" version="27.0.5">
  <diagram name="AWS Deployment Architecture" id="aws-deployment-arch">
    <mxGraphModel dx="1234" dy="912" grid="1" gridSize="10" guides="1" tooltips="1" connect="1" arrows="1" fold="1" page="1" pageScale="1" pageWidth="1200" pageHeight="900" math="0" shadow="0">
      <root>
        <mxCell id="0" />
        <mxCell id="1" parent="0" />
        <mxCell id="title-1" value="elmersho AWS Deployment Architecture" style="text;html=1;strokeColor=none;fillColor=none;align=center;verticalAlign=middle;whiteSpace=wrap;rounded=0;fontSize=22;fontStyle=1" parent="1" vertex="1">
          <mxGeometry x="300" y="20" width="600" height="40" as="geometry" />
        </mxCell>
        <mxCell id="github-box" value="" style="rounded=1;whiteSpace=wrap;html=1;fillColor=#f8cecc;strokeColor=#b85450;dashed=1" parent="1" vertex="1">
          <mxGeometry x="40" y="80" width="280" height="330" as="geometry" />
        </mxCell>
        <mxCell id="github-title" value="GitHub Repository" style="text;html=1;strokeColor=none;fillColor=none;align=center;verticalAlign=middle;whiteSpace=wrap;rounded=0;fontSize=16;fontStyle=1" parent="1" vertex="1">
          <mxGeometry x="40" y="80" width="280" height="30" as="geometry" />
        </mxCell>
        <mxCell id="main-branch" value="main branch" style="rounded=0;whiteSpace=wrap;html=1;fillColor=#d5e8d4;strokeColor=#82b366;fontSize=12;fontFamily=Courier New" parent="1" vertex="1">
          <mxGeometry x="60" y="120" width="100" height="30" as="geometry" />
        </mxCell>
        <mxCell id="dev-branch" value="dev branch" style="rounded=0;whiteSpace=wrap;html=1;fillColor=#fff2cc;strokeColor=#d6b656;fontSize=12;fontFamily=Courier New" parent="1" vertex="1">
          <mxGeometry x="60" y="160" width="100" height="30" as="geometry" />
        </mxCell>
        <mxCell id="feature-branch" value="feature/* branches" style="rounded=0;whiteSpace=wrap;html=1;fillColor=#e1d5e7;strokeColor=#9673a6;fontSize=12;fontFamily=Courier New" parent="1" vertex="1">
          <mxGeometry x="60" y="200" width="120" height="30" as="geometry" />
        </mxCell>
        <mxCell id="actions-box" value="GitHub Actions" style="rounded=0;whiteSpace=wrap;html=1;fillColor=#dae8fc;strokeColor=#6c8ebf;fontSize=12;fontStyle=1" parent="1" vertex="1">
          <mxGeometry x="200" y="120" width="100" height="80" as="geometry" />
        </mxCell>
        <mxCell id="actions-text" value="• CDK Deploy&#xa;• Auto Cleanup&#xa;• PR Comments" style="text;html=1;strokeColor=none;fillColor=none;align=left;verticalAlign=middle;whiteSpace=wrap;rounded=0;fontSize=10" parent="1" vertex="1">
          <mxGeometry x="80" y="260" width="80" height="50" as="geometry" />
        </mxCell>
        <mxCell id="aws-cloud" value="" style="rounded=1;whiteSpace=wrap;html=1;fillColor=#ffe6cc;strokeColor=#d79b00;dashed=1" parent="1" vertex="1">
          <mxGeometry x="350" y="80" width="810" height="710" as="geometry" />
        </mxCell>
        <mxCell id="aws-title" value="AWS Cloud" style="text;html=1;strokeColor=none;fillColor=none;align=center;verticalAlign=middle;whiteSpace=wrap;rounded=0;fontSize=18;fontStyle=1" parent="1" vertex="1">
          <mxGeometry x="380" y="80" width="780" height="30" as="geometry" />
        </mxCell>
        <mxCell id="prod-env" value="" style="rounded=1;whiteSpace=wrap;html=1;fillColor=#d5e8d4;strokeColor=#82b366;dashed=1" parent="1" vertex="1">
          <mxGeometry x="400" y="130" width="340" height="220" as="geometry" />
        </mxCell>
        <mxCell id="prod-title" value="Production (main branch)" style="text;html=1;strokeColor=none;fillColor=none;align=center;verticalAlign=middle;whiteSpace=wrap;rounded=0;fontSize=14;fontStyle=1" parent="1" vertex="1">
          <mxGeometry x="400" y="130" width="340" height="25" as="geometry" />
        </mxCell>
        <mxCell id="prod-cf" value="CloudFront Distribution" style="rounded=0;whiteSpace=wrap;html=1;fillColor=#dae8fc;strokeColor=#6c8ebf;fontSize=12" parent="1" vertex="1">
          <mxGeometry x="410" y="195" width="140" height="40" as="geometry" />
        </mxCell>
        <mxCell id="prod-domains" value="elmersho.com&#xa;www.elmersho.com" style="text;html=1;strokeColor=none;fillColor=none;align=center;verticalAlign=middle;whiteSpace=wrap;rounded=0;fontSize=10;fontFamily=Courier New" parent="1" vertex="1">
          <mxGeometry x="400" y="280" width="140" height="30" as="geometry" />
        </mxCell>
        <mxCell id="prod-s3" value="S3 Bucket" style="rounded=0;whiteSpace=wrap;html=1;fillColor=#f8cecc;strokeColor=#b85450;fontSize=12" parent="1" vertex="1">
          <mxGeometry x="580" y="170" width="80" height="40" as="geometry" />
        </mxCell>
        <mxCell id="prod-s3-name" value="elmersho-prod-*" style="text;html=1;strokeColor=none;fillColor=none;align=center;verticalAlign=middle;whiteSpace=wrap;rounded=0;fontSize=9;fontFamily=Courier New" parent="1" vertex="1">
          <mxGeometry x="580" y="215" width="80" height="20" as="geometry" />
        </mxCell>
        <mxCell id="prod-logs" value="Logs Bucket" style="rounded=0;whiteSpace=wrap;html=1;fillColor=#fff2cc;strokeColor=#d6b656;fontSize=11" parent="1" vertex="1">
          <mxGeometry x="580" y="250" width="80" height="30" as="geometry" />
        </mxCell>
        <mxCell id="prod-logs-name" value="elmersho-prod-*-logs" style="text;html=1;strokeColor=none;fillColor=none;align=center;verticalAlign=middle;whiteSpace=wrap;rounded=0;fontSize=8;fontFamily=Courier New" parent="1" vertex="1">
          <mxGeometry x="575" y="285" width="90" height="15" as="geometry" />
        </mxCell>
        <mxCell id="dev-env" value="" style="rounded=1;whiteSpace=wrap;html=1;fillColor=#fff2cc;strokeColor=#d6b656;dashed=1" parent="1" vertex="1">
          <mxGeometry x="400" y="370" width="340" height="220" as="geometry" />
        </mxCell>
        <mxCell id="dev-title" value="Development (dev branch)" style="text;html=1;strokeColor=none;fillColor=none;align=center;verticalAlign=middle;whiteSpace=wrap;rounded=0;fontSize=14;fontStyle=1" parent="1" vertex="1">
          <mxGeometry x="400" y="370" width="340" height="25" as="geometry" />
        </mxCell>
        <mxCell id="dev-cf" value="CloudFront Distribution" style="rounded=0;whiteSpace=wrap;html=1;fillColor=#dae8fc;strokeColor=#6c8ebf;fontSize=12" parent="1" vertex="1">
          <mxGeometry x="420" y="410" width="140" height="40" as="geometry" />
        </mxCell>
        <mxCell id="dev-domains" value="dev.elmersho.com" style="text;html=1;strokeColor=none;fillColor=none;align=center;verticalAlign=middle;whiteSpace=wrap;rounded=0;fontSize=10;fontFamily=Courier New" parent="1" vertex="1">
          <mxGeometry x="420" y="455" width="140" height="20" as="geometry" />
        </mxCell>
        <mxCell id="dev-s3" value="S3 Bucket" style="rounded=0;whiteSpace=wrap;html=1;fillColor=#f8cecc;strokeColor=#b85450;fontSize=12" parent="1" vertex="1">
          <mxGeometry x="580" y="410" width="80" height="40" as="geometry" />
        </mxCell>
        <mxCell id="dev-s3-name" value="elmersho-dev-*" style="text;html=1;strokeColor=none;fillColor=none;align=center;verticalAlign=middle;whiteSpace=wrap;rounded=0;fontSize=9;fontFamily=Courier New" parent="1" vertex="1">
          <mxGeometry x="580" y="455" width="80" height="20" as="geometry" />
        </mxCell>
        <mxCell id="dev-logs" value="Logs Bucket" style="rounded=0;whiteSpace=wrap;html=1;fillColor=#fff2cc;strokeColor=#d6b656;fontSize=11" parent="1" vertex="1">
          <mxGeometry x="580" y="490" width="80" height="30" as="geometry" />
        </mxCell>
        <mxCell id="dev-logs-name" value="elmersho-dev-*-logs" style="text;html=1;strokeColor=none;fillColor=none;align=center;verticalAlign=middle;whiteSpace=wrap;rounded=0;fontSize=8;fontFamily=Courier New" parent="1" vertex="1">
          <mxGeometry x="575" y="525" width="90" height="15" as="geometry" />
        </mxCell>
        <mxCell id="feature-env" value="" style="rounded=1;whiteSpace=wrap;html=1;fillColor=#e1d5e7;strokeColor=#9673a6;dashed=1" parent="1" vertex="1">
          <mxGeometry x="400" y="610" width="340" height="150" as="geometry" />
        </mxCell>
        <mxCell id="feature-title" value="Feature Branches (PRs)" style="text;html=1;strokeColor=none;fillColor=none;align=center;verticalAlign=middle;whiteSpace=wrap;rounded=0;fontSize=14;fontStyle=1" parent="1" vertex="1">
          <mxGeometry x="400" y="610" width="340" height="25" as="geometry" />
        </mxCell>
        <mxCell id="feature-cf" value="CloudFront Distribution" style="rounded=0;whiteSpace=wrap;html=1;fillColor=#dae8fc;strokeColor=#6c8ebf;fontSize=12" parent="1" vertex="1">
          <mxGeometry x="420" y="650" width="140" height="40" as="geometry" />
        </mxCell>
        <mxCell id="feature-domains" value="&lt;branch&gt;.elmersho.com" style="text;html=1;strokeColor=none;fillColor=none;align=center;verticalAlign=middle;whiteSpace=wrap;rounded=0;fontSize=10;fontFamily=Courier New" parent="1" vertex="1">
          <mxGeometry x="420" y="695" width="140" height="20" as="geometry" />
        </mxCell>
        <mxCell id="feature-s3" value="S3 Bucket" style="rounded=0;whiteSpace=wrap;html=1;fillColor=#f8cecc;strokeColor=#b85450;fontSize=12" parent="1" vertex="1">
          <mxGeometry x="580" y="650" width="80" height="40" as="geometry" />
        </mxCell>
        <mxCell id="feature-s3-name" value="elmersho-&lt;branch&gt;-*" style="text;html=1;strokeColor=none;fillColor=none;align=center;verticalAlign=middle;whiteSpace=wrap;rounded=0;fontSize=9;fontFamily=Courier New" parent="1" vertex="1">
          <mxGeometry x="575" y="695" width="90" height="20" as="geometry" />
        </mxCell>
        <mxCell id="shared-box" value="" style="rounded=1;whiteSpace=wrap;html=1;fillColor=#f5f5f5;strokeColor=#666666;dashed=1" parent="1" vertex="1">
          <mxGeometry x="780" y="130" width="360" height="630" as="geometry" />
        </mxCell>
        <mxCell id="shared-title" value="Shared AWS Services" style="text;html=1;strokeColor=none;fillColor=none;align=center;verticalAlign=middle;whiteSpace=wrap;rounded=0;fontSize=16;fontStyle=1" parent="1" vertex="1">
          <mxGeometry x="780" y="130" width="360" height="30" as="geometry" />
        </mxCell>
        <mxCell id="route53" value="Route 53 Hosted Zone" style="rounded=0;whiteSpace=wrap;html=1;fillColor=#dae8fc;strokeColor=#6c8ebf;fontSize=14;fontStyle=1" parent="1" vertex="1">
          <mxGeometry x="800" y="180" width="320" height="40" as="geometry" />
        </mxCell>
        <mxCell id="route53-domain" value="elmersho.com" style="text;html=1;strokeColor=none;fillColor=none;align=center;verticalAlign=middle;whiteSpace=wrap;rounded=0;fontSize=12;fontFamily=Courier New" parent="1" vertex="1">
          <mxGeometry x="800" y="225" width="320" height="20" as="geometry" />
        </mxCell>
        <mxCell id="acm" value="ACM SSL Certificate" style="rounded=0;whiteSpace=wrap;html=1;fillColor=#d5e8d4;strokeColor=#82b366;fontSize=14;fontStyle=1" parent="1" vertex="1">
          <mxGeometry x="800" y="270" width="320" height="40" as="geometry" />
        </mxCell>
        <mxCell id="acm-wildcard" value="*.elmersho.com + elmersho.com" style="text;html=1;strokeColor=none;fillColor=none;align=center;verticalAlign=middle;whiteSpace=wrap;rounded=0;fontSize=12;fontFamily=Courier New" parent="1" vertex="1">
          <mxGeometry x="800" y="315" width="320" height="20" as="geometry" />
        </mxCell>
        <mxCell id="cdk-toolkit" value="CDK Toolkit" style="rounded=0;whiteSpace=wrap;html=1;fillColor=#fff2cc;strokeColor=#d6b656;fontSize=14;fontStyle=1" parent="1" vertex="1">
          <mxGeometry x="800" y="360" width="320" height="40" as="geometry" />
        </mxCell>
        <mxCell id="cdk-toolkit-text" value="Bootstrap Stack + Assets Bucket" style="text;html=1;strokeColor=none;fillColor=none;align=center;verticalAlign=middle;whiteSpace=wrap;rounded=0;fontSize=12" parent="1" vertex="1">
          <mxGeometry x="800" y="405" width="320" height="20" as="geometry" />
        </mxCell>
        <mxCell id="iam" value="IAM Roles" style="rounded=0;whiteSpace=wrap;html=1;fillColor=#f8cecc;strokeColor=#b85450;fontSize=14;fontStyle=1" parent="1" vertex="1">
          <mxGeometry x="800" y="450" width="320" height="40" as="geometry" />
        </mxCell>
        <mxCell id="iam-text" value="GitHub OIDC + CloudFormation Execution" style="text;html=1;strokeColor=none;fillColor=none;align=center;verticalAlign=middle;whiteSpace=wrap;rounded=0;fontSize=12" parent="1" vertex="1">
          <mxGeometry x="800" y="495" width="320" height="20" as="geometry" />
        </mxCell>
        <mxCell id="cloudwatch" value="CloudWatch" style="rounded=0;whiteSpace=wrap;html=1;fillColor=#e1d5e7;strokeColor=#9673a6;fontSize=14;fontStyle=1" parent="1" vertex="1">
          <mxGeometry x="800" y="540" width="320" height="40" as="geometry" />
        </mxCell>
        <mxCell id="cloudwatch-text" value="Metrics, Logs, Alarms" style="text;html=1;strokeColor=none;fillColor=none;align=center;verticalAlign=middle;whiteSpace=wrap;rounded=0;fontSize=12" parent="1" vertex="1">
          <mxGeometry x="800" y="585" width="320" height="20" as="geometry" />
        </mxCell>
        <mxCell id="aVs5InRfcq6GhMoHYJrY-2" style="edgeStyle=orthogonalEdgeStyle;rounded=0;orthogonalLoop=1;jettySize=auto;html=1;entryX=0;entryY=0.5;entryDx=0;entryDy=0;" edge="1" parent="1" source="users" target="route53">
          <mxGeometry relative="1" as="geometry">
            <Array as="points">
              <mxPoint x="760" y="595" />
              <mxPoint x="760" y="200" />
            </Array>
          </mxGeometry>
        </mxCell>
        <mxCell id="users" value="Users" style="ellipse;whiteSpace=wrap;html=1;fillColor=#dae8fc;strokeColor=#6c8ebf;fontSize=14;fontStyle=1" parent="1" vertex="1">
          <mxGeometry x="100" y="565" width="80" height="60" as="geometry" />
        </mxCell>
        <mxCell id="arrow-gh-actions" value="" style="endArrow=classic;html=1;rounded=0;exitX=1;exitY=0.5;exitDx=0;exitDy=0;entryX=0;entryY=0.5;entryDx=0;entryDy=0" parent="1" source="main-branch" target="actions-box" edge="1">
          <mxGeometry width="50" height="50" relative="1" as="geometry">
            <mxPoint x="340" y="340" as="sourcePoint" />
            <mxPoint x="390" y="290" as="targetPoint" />
          </mxGeometry>
        </mxCell>
        <mxCell id="arrow-actions-aws" value="CDK Deploy" style="endArrow=classic;html=1;rounded=0;exitX=1;exitY=0.5;exitDx=0;exitDy=0;entryX=0;entryY=0.25;entryDx=0;entryDy=0" parent="1" source="actions-box" target="aws-cloud" edge="1">
          <mxGeometry width="50" height="50" relative="1" as="geometry">
            <mxPoint x="340" y="340" as="sourcePoint" />
            <mxPoint x="390" y="290" as="targetPoint" />
          </mxGeometry>
        </mxCell>
        <mxCell id="arrow-cf-s3-prod" value="" style="endArrow=classic;html=1;rounded=0;exitX=1;exitY=0.5;exitDx=0;exitDy=0;entryX=0;entryY=0.5;entryDx=0;entryDy=0" parent="1" source="prod-cf" target="prod-s3" edge="1">
          <mxGeometry width="50" height="50" relative="1" as="geometry">
            <mxPoint x="340" y="340" as="sourcePoint" />
            <mxPoint x="390" y="290" as="targetPoint" />
          </mxGeometry>
        </mxCell>
        <mxCell id="arrow-cf-logs-prod" value="Access Logs" style="endArrow=classic;html=1;rounded=0;exitX=1;exitY=1;exitDx=0;exitDy=0;entryX=0;entryY=0.5;entryDx=0;entryDy=0" parent="1" source="prod-cf" target="prod-logs" edge="1">
          <mxGeometry width="50" height="50" relative="1" as="geometry">
            <mxPoint x="340" y="340" as="sourcePoint" />
            <mxPoint x="390" y="290" as="targetPoint" />
          </mxGeometry>
        </mxCell>
        <mxCell id="flow-box" value="" style="rounded=1;whiteSpace=wrap;html=1;fillColor=#f5f5f5;strokeColor=#666666;dashed=1" parent="1" vertex="1">
          <mxGeometry x="40" y="800" width="1120" height="80" as="geometry" />
        </mxCell>
        <mxCell id="flow-title" value="Deployment Flow" style="text;html=1;strokeColor=none;fillColor=none;align=center;verticalAlign=middle;whiteSpace=wrap;rounded=0;fontSize=16;fontStyle=1" parent="1" vertex="1">
          <mxGeometry x="40" y="800" width="1120" height="25" as="geometry" />
        </mxCell>
        <mxCell id="flow-text" value="1. Code pushed to branch → 2. GitHub Actions triggered → 3. CDK synthesizes CloudFormation → 4. Infrastructure deployed to AWS → 5. Website files uploaded to S3 → 6. CloudFront cache invalidated → 7. DNS updated → 8. Site live at branch-specific domain" style="text;html=1;strokeColor=none;fillColor=none;align=center;verticalAlign=middle;whiteSpace=wrap;rounded=0;fontSize=12" parent="1" vertex="1">
          <mxGeometry x="50" y="825" width="1100" height="45" as="geometry" />
        </mxCell>
      </root>
    </mxGraphModel>
  </diagram>
</mxfile>
